/* XPM */
static char *result[] = {
/* columns rows colors chars-per-pixel */
"50 50 7 1 ",
"  c #071821",
". c #8F0000",
"X c #E44552",
"o c #EDBD34",
"O c #FF9393",
"+ c #FFC893",
"@ c #0",
/* pixels */
"@@@@@@@@@@@@@@@@@@            @@@@@@@@@@@@@@@@@@@@",
"@@@@@@@@@@@@@@@@@@            @@@@@@@@@@@@@@@@@@@@",
"@@@@@@@@@@@@@@@@@@            @@@@@@@@@@@@@@@@@@@@",
"@@@@@@@@@@@@      oooooooooooo      @@@@@@@@@@@@@@",
"@@@@@@@@@@@@      oooooooooooo      @@@@@@@@@@@@@@",
"@@@@@@@@@@@@      oooooooooooo      @@@@@@@@@@@@@@",
"@@@@@@@@@   oooooo............oooooo   @@@@@@@@@@@",
"@@@@@@@@@   oooooo............oooooo   @@@@@@@@@@@",
"@@@@@@@@@   oooooo............oooooo   @@@@@@@@@@@",
"@@@@@@@@@   ooo..................ooo   @@@@@@@@@@@",
"@@@@@@@@@   ooo..................ooo   @@@@@@@@@@@",
"@@@@@@@@@   ooo..................ooo   @@@@@@@@@@@",
"@@@@@@   ooo...oooooooooooooooooo...ooo   @@@@@@@@",
"@@@@@@   ooo...oooooooooooooooooo...ooo   @@@@@@@@",
"@@@@@@   ooo...oooooooooooooooooo...ooo   @@@@@@@@",
"@@@@@@   ...ooo+++ooo+++ooo+++ooo+++...   @@@@@@@@",
"@@@@@@   ...ooo+++ooo+++ooo+++ooo+++...   @@@@@@@@",
"@@@@@@   ...ooo+++ooo+++ooo+++ooo+++...   @@@@@@@@",
"@@@@@@   +++++++++   ++++++   +++++++++   @@@@@@@@",
"@@@@@@   +++++++++   ++++++   +++++++++   @@@@@@@@",
"@@@@@@   +++++++++   ++++++   +++++++++   @@@@@@@@",
"@@@@@@      +++OOO   ++++++   OOO+++      @@@@@@@@",
"@@@@@@      +++OOO   ++++++   OOO+++      @@@@@@@@",
"@@@@@@      +++OOO   ++++++   OOO+++      @@@@@@@@",
"@@@@@@   ooo   ++++++XXXXXX++++++   ooo   @@@@@@@@",
"@@@@@@   ooo   ++++++XXXXXX++++++   ooo   @@@@@@@@",
"@@@@@@   ooo   ++++++XXXXXX++++++   ooo   @@@@@@@@",
"@@@@@@   oooooo                  oooooo   @@@@@@@@",
"@@@@@@   oooooo                  oooooo   @@@@@@@@",
"@@@@@@   oooooo                  oooooo   @@@@@@@@",
"@@@@@@   ooo   +++   OOOOOO   +++   ooo   @@@@@@@@",
"@@@@@@   ooo   +++   OOOOOO   +++   ooo   @@@@@@@@",
"@@@@@@   ooo   +++   OOOOOO   +++   ooo   @@@@@@@@",
"@@@@@@      ++++++            ++++++      @@@@@@@@",
"@@@@@@      ++++++            ++++++      @@@@@@@@",
"@@@@@@      ++++++            ++++++      @@@@@@@@",
"@@@@@@   ooo      OOOOOOOOOOOO      ooo   @@@@@@@@",
"@@@@@@   ooo      OOOOOOOOOOOO      ooo   @@@@@@@@",
"@@@@@@   ooo      OOOOOOOOOOOO      ooo   @@@@@@@@",
"@@@@@@@@@      OOOOOOOOOOOOOOOOOO      @@@@@@@@@@@",
"@@@@@@@@@      OOOOOOOOOOOOOOOOOO      @@@@@@@@@@@",
"@@@@@@@@@      OOOOOOOOOOOOOOOOOO      @@@@@@@@@@@",
"@@@@@@@@@@@@@@@                  @@@@@@@@@@@@@@@@@",
"@@@@@@@@@@@@@@@                  @@@@@@@@@@@@@@@@@",
"@@@@@@@@@@@@@@@                  @@@@@@@@@@@@@@@@@",
"@@@@@@@@@@@@@@@@@@            @@@@@@@@@@@@@@@@@@@@",
"@@@@@@@@@@@@@@@@@@            @@@@@@@@@@@@@@@@@@@@",
"@@@@@@@@@@@@@@@@@@            @@@@@@@@@@@@@@@@@@@@",
"@@@@@@@@@@@@                        @@@@@@@@@@@@@@",
"@@@@@@@@@@@@                        @@@@@@@@@@@@@@"
};
