/* XPM */
static char *result[] = {
/* columns rows colors chars-per-pixel */
"50 50 15 1 ",
"  c #1A070F",
". c #53272E",
"X c #562C3A",
"O c #733B41",
"+ c #841F19",
"@ c #C04101",
"# c #884949",
"$ c #9B534A",
"% c #846A58",
"& c #BE675D",
"* c #B66E62",
"= c #AF9582",
"- c #E7B19E",
"; c #AFB5CE",
"o c #0",
/* pixels */
"oooooooooooooooooooooooooooooooooooooooooooooooooo",
"oooooooooooooooooo              oooooooooooooooooo",
"oooooooooooooooooo              oooooooooooooooooo",
"oooooooooooooooo  ++@@@@@@@@@@++  oooooooooooooooo",
"oooooooooooooooo  ++@@@@@@@@@@++  oooooooooooooooo",
"oooooooooooooo  ++@@@@@@@@@@@@@@++  oooooooooooooo",
"oooooooooooooo  ++@@@@@@@@@@@@@@++  oooooooooooooo",
"oooooooooooooo  ++@@@@@@@@@@@@@@++  oooooooooooooo",
"oooooooooooooo  ++@@@@@@@@@@@@@@++  oooooooooooooo",
"oooooooooooooo  ++++@@@@@@@@@@++++  oooooooooooooo",
"oooooooooooooo  ++++@@@@@@@@@@++++  oooooooooooooo",
"oooooooooooooo  ++++++++++++++++++  oooooooooooooo",
"oooooooooooooo  ++++++++++++++++++  oooooooooooooo",
"oooooooooooo  --++++++@@@@@@++++++--  oooooooooooo",
"oooooooooooo  --++++++@@@@@@++++++--  oooooooooooo",
"oooooooooooo  --++++++++++++++++++--  oooooooooooo",
"oooooooooooo  --++++++++++++++++++--  oooooooooooo",
"oooooooooooooo  --++++++++++++++--  oooooooooooooo",
"oooooooooooooo  --++++++++++++++--  oooooooooooooo",
"oooooooooooooo  **--++++++++++--**  oooooooooooooo",
"oooooooooooooo  **--++++++++++--**  oooooooooooooo",
"oooooooooooooooo  ****------****  oooooooooooooooo",
"oooooooooooooooo  ****------****  oooooooooooooooo",
"oooooooooooooo  %%==**--**--**==%%  oooooooooooooo",
"oooooooooooooo  %%==**--**--**==%%  oooooooooooooo",
"oooooooooooo  %%%%==============%%%%  oooooooooooo",
"oooooooooooo  %%%%==============%%%%  oooooooooooo",
"oooooooooooo  ==%%======%%======%%==  oooooooooooo",
"oooooooooooo  ==%%======%%======%%==  oooooooooooo",
"oooooooooo  ====  %%====%%====%%  ====  oooooooooo",
"oooooooooo  ====  %%====%%====%%  ====  oooooooooo",
"oooooooooo  OOOO    %%======%%    OOOO      oooooo",
"oooooooooo  OOOO    %%======%%    OOOO      oooooo",
"oooooooooo  $$$$$$  %%======%%  $$$$....;;  oooooo",
"oooooooooo  $$$$$$  %%======%%  $$$$....;;  oooooo",
"oooooooooo  $$XXOO  XXXXXXXXXX  ##....    oooooooo",
"oooooooooo  $$XXOO  XXXXXXXXXX  ##....    oooooooo",
"oooooooooo  OOOO    $$&&&&&&$$  ##..OO  oooooooooo",
"oooooooooo  OOOO    $$&&&&&&$$  ##..OO  oooooooooo",
"oooooooooooo    oo  $$$$$$$$$$  ##    oooooooooooo",
"oooooooooooo    oo  $$$$$$$$$$  ##    oooooooooooo",
"oooooooooooooooooo  $$OO  OO$$      oooooooooooooo",
"oooooooooooooooooo  $$OO  OO$$      oooooooooooooo",
"oooooooooooooooooo  OO  oo  OO  oooooooooooooooooo",
"oooooooooooooooooo  OO  oo  OO  oooooooooooooooooo",
"oooooooooooooooo  XX$$  oo  $$XX  oooooooooooooooo",
"oooooooooooooooo  XX$$  oo  $$XX  oooooooooooooooo",
"oooooooooooooooo  $$$$  oo  $$$$  oooooooooooooooo",
"oooooooooooooooo  $$$$  oo  $$$$  oooooooooooooooo",
"oooooooooooooooooooooooooooooooooooooooooooooooooo"
};
