/* XPM */
static char *result[] = {
/* columns rows colors chars-per-pixel */
"50 50 19 1 ",
"  c #1A070F",
". c #53272E",
"X c #562C3A",
"O c #733B41",
"+ c #841F19",
"@ c #C04101",
"# c #884949",
"$ c #9B534A",
"% c #846A58",
"& c #B66E62",
"* c #656E87",
"= c #AF9582",
"- c #E7B19E",
"; c #CEB5A2",
": c #AFB5CE",
"> c #F9DCC5",
", c #EFEFEF",
"< c #F4F5FE",
"o c #0",
/* pixels */
"oooooooooooooooooo              oooooooooooooooooo",
"oooooooooooooooo  ++@@@@@@++@@@@  oooooooooooooooo",
"oooooooooooooooo  ++@@@@@@++@@@@  oooooooooooooooo",
"oooooooooooooo  ++@@@@@@@@@@@@@@@@  oooooooooooooo",
"oooooooooooooo  ++@@@@@@@@@@@@@@@@  oooooooooooooo",
"oooooooooooooo  ++++@@++++++++++@@@@  oooooooooooo",
"oooooooooooooo  ++++@@++++++++++@@@@  oooooooooooo",
"oooooooooooooo  ++++++++&&&&&&++++++  oooooooooooo",
"oooooooooooooo  ++++++++&&&&&&++++++  oooooooooooo",
"oooooooooooooo  ++++--------------    oooooooooooo",
"oooooooooooooo  ++++--------------    oooooooooooo",
"oooooooooooo  --++--@@@@@@--@@@@@@  oooooooooooooo",
"oooooooooooo  --++--@@@@@@--@@@@@@  oooooooooooooo",
"oooooooooooo  --++----<<  >>&&<<    oooooooooooooo",
"oooooooooooo  --++----<<  >>&&<<    oooooooooooooo",
"oooooooooooooo  &&-------->>&&----  oooooooooooooo",
"oooooooooooooo  &&-------->>&&----  oooooooooooooo",
"oooooooooooooooo  ----------------  oooooooooooooo",
"oooooooooooooooo  ----------------  oooooooooooooo",
"oooooooooooooooo  &&----&&&&&&--  oooooooooooooooo",
"oooooooooooooooo  &&----&&&&&&--  oooooooooooooooo",
"oooooooooooooo  %%  ----------&&  oooooooooooooooo",
"oooooooooooooo  %%  ----------&&  oooooooooooooooo",
"oooooooooooo  %%;;==            %%  oooooooooooooo",
"oooooooooooo  %%;;==            %%  oooooooooooooo",
"oooooooooooo  %%========--&&--==%%  oooooooooooooo",
"oooooooooooo  %%========--&&--==%%  oooooooooooooo",
"oooooooooo  ====  %%============%%  oooooooooooooo",
"oooooooooo  ====  %%============%%  oooooooooooooo",
"oooooo      **OO  %%  ========%%  OO  oooooooooooo",
"oooooo      **OO  %%  ========%%  OO  oooooooooooo",
"oooooo  ::  $$$$$$##  ====%%==  OO$$  oooooooooooo",
"oooooo  ::  $$$$$$##  ====%%==  OO$$  oooooooooooo",
"oooooooo    $$....##      ::**  OOXX$$  oooooooooo",
"oooooooo    $$....##      ::**  OOXX$$  oooooooooo",
"oooooooooo  OOOO..##****::        $$$$  oooooooooo",
"oooooooooo  OOOO..##****::        $$$$  oooooooooo",
"oooooooooooo      ##  **::::::::      oooooooooooo",
"oooooooooooo      ##  **::::::::      oooooooooooo",
"oooooooooooooooo    $$    ,,,,::::::  oooooooooooo",
"oooooooooooooooo    $$    ,,,,::::::  oooooooooooo",
"oooooooooooooooooo  OO  oo    ,,,,,,  oooooooooooo",
"oooooooooooooooooo  OO  oo    ,,,,,,  oooooooooooo",
"oooooooooooooooo  XX**  oo  **        oooooooooooo",
"oooooooooooooooo  XX**  oo  **        oooooooooooo",
"oooooooooooooooo  $$$$  oo  $$$$$$  oooooooooooooo",
"oooooooooooooooo  $$$$  oo  $$$$$$  oooooooooooooo",
"oooooooooooooooooooooooooooooooooooooooooooooooooo",
"oooooooooooooooooooooooooooooooooooooooooooooooooo",
"oooooooooooooooooooooooooooooooooooooooooooooooooo"
};
