/* XPM */
static char *result[] = {
/* columns rows colors chars-per-pixel */
"50 50 18 1 ",
"  c #1A070F",
". c #53272E",
"X c #562C3A",
"O c #733B41",
"+ c #841F19",
"@ c #C04101",
"# c #884949",
"$ c #9B534A",
"% c #846A58",
"& c #B66E62",
"* c #656E87",
"= c #AF9582",
"- c #E7B19E",
"; c #AFB5CE",
": c #F9DCC5",
"> c #EFEFEF",
", c #F4F5FE",
"o c #0",
/* pixels */
"oooooooooooooooooooooooooooooooooooooooooooooooooo",
"ooooooooooooooooo              ooooooooooooooooooo",
"ooooooooooooooooo              ooooooooooooooooooo",
"ooooooooooooooo  ++@@@@++@@@@++  ooooooooooooooooo",
"ooooooooooooooo  ++@@@@++@@@@++  ooooooooooooooooo",
"ooooooooooooo  ++@@@@@@@@@@@@@@++  ooooooooooooooo",
"ooooooooooooo  ++@@@@@@@@@@@@@@++  ooooooooooooooo",
"ooooooooooooo  ++@@++++++++++@@++  ooooooooooooooo",
"ooooooooooooo  ++@@++++++++++@@++  ooooooooooooooo",
"ooooooooooooo  ++++++&&&&&&++++++  ooooooooooooooo",
"ooooooooooooo  ++++++&&&&&&++++++  ooooooooooooooo",
"ooooooooooooo  ++&&----------&&++  ooooooooooooooo",
"ooooooooooooo  ++&&----------&&++  ooooooooooooooo",
"ooooooooooo  --++@@@@@@--@@@@@@++--  ooooooooooooo",
"ooooooooooo  --++@@@@@@--@@@@@@++--  ooooooooooooo",
"ooooooooooo  --++,,  &&::&&  ,,++--  ooooooooooooo",
"ooooooooooo  --++,,  &&::&&  ,,++--  ooooooooooooo",
"ooooooooooooo  &&----&&::&&----&&  ooooooooooooooo",
"ooooooooooooo  &&----&&::&&----&&  ooooooooooooooo",
"ooooooooooooo  &&--------------&&  ooooooooooooooo",
"ooooooooooooo  &&--------------&&  ooooooooooooooo",
"ooooooooooooooo  &&--&&&&&&--&&  ooooooooooooooooo",
"ooooooooooooooo  &&--&&&&&&--&&  ooooooooooooooooo",
"ooooooooooooo  %%  &&------&&  %%  ooooooooooooooo",
"ooooooooooooo  %%  &&------&&  %%  ooooooooooooooo",
"ooooooooooo  %%%%==          ==%%%%  ooooooooooooo",
"ooooooooooo  %%%%==          ==%%%%  ooooooooooooo",
"ooooooooooo  ========--&&--========  ooooooooooooo",
"ooooooooooo  ========--&&--========  ooooooooooooo",
"ooooooooo  ====  %%==========%%  ====  ooooooooooo",
"ooooooooo  ====  %%==========%%  ====  ooooooooooo",
"ooooo      **OO      ======%%    OO**  ooooooooooo",
"ooooo      **OO      ======%%    OO**  ooooooooooo",
"ooooo  ;;  $$$$$$##  ==%%==%%  $$$$$$  ooooooooooo",
"ooooo  ;;  $$$$$$##  ==%%==%%  $$$$$$  ooooooooooo",
"ooooooo    $$....##      **XX  OOXX$$  ooooooooooo",
"ooooooo    $$....##      **XX  OOXX$$  ooooooooooo",
"ooooooooo  OOOO..##****;;        OOOO  ooooooooooo",
"ooooooooo  OOOO..##****;;        OOOO  ooooooooooo",
"ooooooooooo      ##  **;;;;;;;;      ooooooooooooo",
"ooooooooooo      ##  **;;;;;;;;      ooooooooooooo",
"ooooooooooooooo    $$    >>>>;;;;;;  ooooooooooooo",
"ooooooooooooooo    $$    >>>>;;;;;;  ooooooooooooo",
"ooooooooooooooooo  OO  oo    >>>>>>  ooooooooooooo",
"ooooooooooooooooo  OO  oo    >>>>>>  ooooooooooooo",
"ooooooooooooooo  XX**  oo  **        ooooooooooooo",
"ooooooooooooooo  XX**  oo  **        ooooooooooooo",
"ooooooooooooooo  $$$$  oo  $$$$  ooooooooooooooooo",
"ooooooooooooooo  $$$$  oo  $$$$  ooooooooooooooooo",
"oooooooooooooooooooooooooooooooooooooooooooooooooo"
};
