/* XPM */
static char *result[] = {
/* columns rows colors chars-per-pixel */
"50 50 19 1 ",
"  c #1A070F",
". c #53272E",
"X c #562C3A",
"O c #733B41",
"+ c #841F19",
"@ c #C04101",
"# c #884949",
"$ c #9B534A",
"% c #846A58",
"& c #B66E62",
"* c #656E87",
"= c #AF9582",
"- c #E7B19E",
"; c #CEB5A2",
": c #AFB5CE",
"> c #F9DCC5",
", c #EFEFEF",
"< c #F4F5FE",
"o c #0",
/* pixels */
"oooooooooooooooooooooooooooooooooooooooooooooooooo",
"oooooooooooooooooooo              oooooooooooooooo",
"oooooooooooooooooooo              oooooooooooooooo",
"oooooooooooooooooo  @@@@++@@@@@@++  oooooooooooooo",
"oooooooooooooooooo  @@@@++@@@@@@++  oooooooooooooo",
"oooooooooooooooo  @@@@@@@@@@@@@@@@++  oooooooooooo",
"oooooooooooooooo  @@@@@@@@@@@@@@@@++  oooooooooooo",
"oooooooooooooo  @@@@++++++++++@@++++  oooooooooooo",
"oooooooooooooo  @@@@++++++++++@@++++  oooooooooooo",
"oooooooooooooo  ++++++&&&&&&++++++++  oooooooooooo",
"oooooooooooooo  ++++++&&&&&&++++++++  oooooooooooo",
"oooooooooooooo    --------------++++  oooooooooooo",
"oooooooooooooo    --------------++++  oooooooooooo",
"oooooooooooooooo  @@@@@@--@@@@@@--++--  oooooooooo",
"oooooooooooooooo  @@@@@@--@@@@@@--++--  oooooooooo",
"oooooooooooooooo    <<&&>>  <<----++--  oooooooooo",
"oooooooooooooooo    <<&&>>  <<----++--  oooooooooo",
"oooooooooooooooo  ----&&>>--------&&  oooooooooooo",
"oooooooooooooooo  ----&&>>--------&&  oooooooooooo",
"oooooooooooooooo  ----------------  oooooooooooooo",
"oooooooooooooooo  ----------------  oooooooooooooo",
"oooooooooooooooooo  --&&&&&&----&&  oooooooooooooo",
"oooooooooooooooooo  --&&&&&&----&&  oooooooooooooo",
"oooooooooooooooooo  &&----------  %%  oooooooooooo",
"oooooooooooooooooo  &&----------  %%  oooooooooooo",
"oooooooooooooooo  %%            ==;;%%  oooooooooo",
"oooooooooooooooo  %%            ==;;%%  oooooooooo",
"oooooooooooooooo  %%==--&&--========%%  oooooooooo",
"oooooooooooooooo  %%==--&&--========%%  oooooooooo",
"oooooooooooooooo  %%============%%  ====  oooooooo",
"oooooooooooooooo  %%============%%  ====  oooooooo",
"oooooooooooooo      %%========%%%%  OO**  oooooooo",
"oooooooooooooo      %%========%%%%  OO**  oooooooo",
"oooooooooooooo  ##OO  ==%%====%%  $$$$$$  oooooooo",
"oooooooooooooo  ##OO  ==%%====%%  $$$$$$  oooooooo",
"oooooooooooo    ##..  **::**XXXX  OOXX$$  oooooooo",
"oooooooooooo    ##..  **::**XXXX  OOXX$$  oooooooo",
"oooooooo    ::**##..  $$OO$$$$$$    OOOO  oooooooo",
"oooooooo    ::**##..  $$OO$$$$$$    OOOO  oooooooo",
"oooo    ::::::**##    $$$$$$$$$$  oo    oooooooooo",
"oooo    ::::::**##    $$$$$$$$$$  oo    oooooooooo",
"oo  ::::::,,::        $$OO  OO$$  oooooooooooooooo",
"oo  ::::::,,::        $$OO  OO$$  oooooooooooooooo",
"oo  ,,,,,,    oooooo  OO  oo  OO  oooooooooooooooo",
"oo  ,,,,,,    oooooo  OO  oo  OO  oooooooooooooooo",
"oo        oooooooo  XX**  oo  **XX  oooooooooooooo",
"oo        oooooooo  XX**  oo  **XX  oooooooooooooo",
"oooooooooooooooo  $$$$$$  oo  $$$$  oooooooooooooo",
"oooooooooooooooo  $$$$$$  oo  $$$$  oooooooooooooo",
"oooooooooooooooooooooooooooooooooooooooooooooooooo"
};
