/* XPM */
static char *result[] = {
/* columns rows colors chars-per-pixel */
"50 50 13 1 ",
"  c #2E222F",
". c #7A3045",
"X c #625565",
"o c #AE2334",
"O c #E83B3B",
"+ c #966C6C",
"@ c #F79617",
"# c #AB947A",
"$ c #7F708A",
"% c #9BABB2",
"& c #C7DCD0",
"* c #FFFFFF",
"= c #0",
/* pixels */
"    ++++++++XXXX    ==============================",
"    ++++++++XXXX    ==============================",
"    ++++++++XXXX    ==============================",
"    ++++++++XXXX    ==============================",
"++++########++++XXXX    ==========================",
"++++########++++XXXX    ==========================",
"++++########++++XXXX    ==========================",
"++++########++++XXXX    ==========================",
"++++########++++XXXX****    ======================",
"++++########++++XXXX****    ======================",
"++++########++++XXXX****    ======================",
"++++########++++XXXX****    ======================",
"XXXX++++++++XXXXXXXX****%%%%            ==========",
"XXXX++++++++XXXXXXXX****%%%%            ==========",
"XXXX++++++++XXXXXXXX****%%%%            ==========",
"XXXX++++++++XXXXXXXX****%%%%            ==========",
"    XXXXXXXXXXXX****%%%%&&&&%%%%%%%%%%%%    ======",
"    XXXXXXXXXXXX****%%%%&&&&%%%%%%%%%%%%    ======",
"    XXXXXXXXXXXX****%%%%&&&&%%%%%%%%%%%%    ======",
"    XXXXXXXXXXXX****%%%%&&&&%%%%%%%%%%%%    ======",
"====    ********%%%%&&&&@@@@OOOOoooooooo%%%%    ==",
"====    ********%%%%&&&&@@@@OOOOoooooooo%%%%    ==",
"====    ********%%%%&&&&@@@@OOOOoooooooo%%%%    ==",
"====    ********%%%%&&&&@@@@OOOOoooooooo%%%%    ==",
"========    %%%%&&&&@@@@OOOOOOOOOOOOoooooooo$$$$  ",
"========    %%%%&&&&@@@@OOOOOOOOOOOOoooooooo$$$$  ",
"========    %%%%&&&&@@@@OOOOOOOOOOOOoooooooo$$$$  ",
"========    %%%%&&&&@@@@OOOOOOOOOOOOoooooooo$$$$  ",
"============    %%%%@@@@****OOOOoooooooo....$$$$  ",
"============    %%%%@@@@****OOOOoooooooo....$$$$  ",
"============    %%%%@@@@****OOOOoooooooo....$$$$  ",
"============    %%%%@@@@****OOOOoooooooo....$$$$  ",
"============    %%%%oooo@@@@****oooooooo....$$$$  ",
"============    %%%%oooo@@@@****oooooooo....$$$$  ",
"============    %%%%oooo@@@@****oooooooo....$$$$  ",
"============    %%%%oooo@@@@****oooooooo....$$$$  ",
"============    %%%%....oooooooooooo........$$$$  ",
"============    %%%%....oooooooooooo........$$$$  ",
"============    %%%%....oooooooooooo........$$$$  ",
"============    %%%%....oooooooooooo........$$$$  ",
"================    $$$$................$$$$    ==",
"================    $$$$................$$$$    ==",
"================    $$$$................$$$$    ==",
"================    $$$$................$$$$    ==",
"====================    $$$$$$$$$$$$$$$$    ======",
"====================    $$$$$$$$$$$$$$$$    ======",
"====================    $$$$$$$$$$$$$$$$    ======",
"====================    $$$$$$$$$$$$$$$$    ======",
"========================                ==========",
"========================                =========="
};
