/* XPM */
static char *result[] = {
/* columns rows colors chars-per-pixel */
"50 50 33 1 ",
"  c #363536",
". c #36353A",
"X c #38373B",
"o c #3B3A3D",
"O c #3D3E42",
"+ c #403F45",
"@ c #403F48",
"# c #3F4044",
"$ c #3F4249",
"% c #414246",
"& c #43454B",
"* c #46494E",
"= c #484A4F",
"- c #454651",
"; c #484751",
": c #474951",
"> c #494C54",
", c #4C4E59",
"< c #4D5056",
"1 c #4E515B",
"2 c #51545D",
"3 c #4E5261",
"4 c #525662",
"5 c #555965",
"6 c #595D66",
"7 c #565A6A",
"8 c #5A5E6C",
"9 c #585E70",
"0 c #5C6167",
"q c #5D626C",
"w c #5C6273",
"e c #60666F",
"r c #646A74",
/* pixels */
"&*%=%2%%&o<==%+OOo=&o+OOoOOoo<=%***# *#oo<<$$<$<1<",
"%+%&%%O%%%&&%=Oooooo+OO%%+oO<&&%#### ##$*<*$$$<$<9",
"&%%%%OO&&%<%%<OX+@o=OO+<=<&&=%%&**<*###$$3<<$$1953",
"&&%o%O%>&2*%%OOO&o&O+o@<=%&&%&==*<**#**$$$::$$9133",
"=&&;O%%==%&%o;O%+;;@o=&=O*%%%%%<##*###<#*:$<$9333$",
">+;+%>>,&&%+o@&,==@oo1O% %++%&%%<<<*#<<*<*$<333$<$",
">;&o+;&&:%%o+++&@++X+@oXO*%+=>22<**<<**#$:<$55<1$$",
";o%@&&+%++&o;o*&oooX+ X %o%2<,=><<<<<<<**<*<92114<",
";2&1&,*+*>&&:&,&%512%<o&&&=<&;%><<0r0r000reer0r0rr",
"+>O%++++O+;@&#%&>2:=%%O<==&&+oO+*<*#*##*%%%%**%%$$",
"*>o>%%&&+&++$#-->>====%%&=%o o%O*<<*<#*#**%**%%%$<",
">&:=,*%%X%o+>&>::=&%2=<==&=%O&&&<*<<<*<<*<******$$",
"=*=64>>=*+-,:-,,:=O>&%%&=%%*=%<%<*<<<****<*%*%%%$<",
"2<>%%%o%&*&&&*O&,&X&%%%ooo%=o%<%**<<<*<<==*==**=<$",
"<;%+%&+O&+&&&&OO&&%*%o%oo%oo%%=%**<<<***<=*****%**",
"4;%%O%%%*&&&&*&O&OOO=%oo%&==o%%#***<<***<==**%##%#",
"&,*$*:4,,*&#-O&&&$$&##&==%%>ooO&:>%<=<$$<*<%*%**&&",
";&%&&,:,=&&&#O%&OO#:&==<*%Oo*o#O&=&<**$#$$$**$%<%%",
"&+:$o--O*$&>:-:&O%O&%%O%OOOO#%=%&%O=$###%o#$##*$%%",
"o+:::,441252>:2=2%>><%**%===%=<=>:=;$&**$#<*##<<=*",
":,-$43-,>42<<=>=%%%%%%%&==&&%*=%&;>@&+o1*$**#**<<*",
"*-7-,44,<3:=&%,%=#O=%oo=&%o%*%&X+2&;+-&&%$o oo<<*%",
"$,4w7,>13->:%#:&*%*%Oo&<o%+O%O %@-@O+X&:*#o##$$$&<",
",>3,>3,>*&::+*=-%*OooOo#%oo+oooO,-O&OoO:%#o$$#$<&%",
",3-31,,-;,@@&@&O%%OXXOOO%oo*O%OO-$-O-$O&$#.,$#&#%%",
">,,93:-&>;4@&O&@oXX@OOXOXoOX.OO&,--OX-&,**$1O#%*=<",
",,,:,>:,,-@@,@OO+o;@&XOOXoOX.OO@-OO-&O*1>>25###&*%",
"O---$*&-@;@O;&;;;&&>>-,O&O*O&&*-$O--$:&-><:<o#&*%*",
":,-O*,>>O@O@@@OOoO&*$@&,>&->@-&&O-3O,$$,>:4<oo##**",
"OXO.O*&&@OOO.OOO&*@XOOOOO@X-OXXXOOOO$OOO$$#O X O%o",
"OOOOOOXOOO@-OOO-OO&-,$$-,973973-$$,OOOO$$:&$&2222<",
">O@;O@O@@-,@-OOOOOO;>--,44,3743-3,$$O$O-$$OO=<%%<2",
"O,33@@>>3,;1458757,,,2>;72<877;,7&7&$$$$$#$$O,$,-,",
",3;@>>22;24221422>,14>2><748;,,4,;4&#o>:>$OOO$3$,&",
"@+;@,2524<3>>1,11>>>,,,,4<,2,>-,,>>O$<1<:3:$O-3,1*",
"@>O;72,>3>,>;>@;&&1=,,:24;;@;;**>*>O$>:#$$>OO-3$O@",
";3,7&<>:=>2<>&11>1>12>6:>,**>,,4,,1$1*$O&O&$,$-O-+",
"@;;<>>:%&2&,5;>>>:1,>1,=:>:,,>>4>-11#$$4OO$$$O3O-;",
",;+&;,*,>2&,>+=&:=:%%++=&o;*;>>*,O:::$5:$&>>>O3O@;",
"@@+@;,*>>>;>&;&>&%%O+*&&%>%&4&O>>-$&<<4#&%$$,O$-;<",
"$***<:<<,,11%555:--454,2=2&211-,,;5666006qq8q6wqee",
"O>**#*<*%&*&>42>,=>22,,,:>=61:=%%%%%&;;=:*:&&&&:=<",
" :***&>$%>=&<3<>2;%4,2=*>2,14=1&%>=&%%&=&&&2:%&===",
"&*::*$:&%*=%31>::=24,:*+>=>>>&>,=%%%%+O&#&%O=&%%&&",
"<<*::*&&&&$=q,>:=25<>-&&=,:*-;***&o=&=&&=%%OOooo%O",
"1$:**&&:#%%#w5>>12<1,@&&*-:&-&O**===&==<====%+Oo%%",
"<*:*=&&%&=&=61,14,>>,:>>*:>:*O-&:-&&=%&==<%%%Ooo+&",
":>&$#&*&##&=7511:>>,,&--&*:&*&-&-&&:+%==%==o=%O%%;",
"#$$::&*&*#:&0>>**>:#:*&:@&&;&+**&&&OO$#&%O%&%o+&%%",
":1*:*:*$*%&&41<:&<==&>-*&&@&%+*&$#$&O&OoO%%O%&&%XX"
};
