/* XPM */
static char *result[] = {
/* columns rows colors chars-per-pixel */
"50 50 74 1 ",
"  c #160000",
". c #1E0404",
"X c #230505",
"o c #2B0707",
"O c #2B0807",
"+ c #2B0A09",
"@ c #330D0D",
"# c #3C0F0F",
"$ c #2A130E",
"% c #34100F",
"& c #361110",
"* c #3B1312",
"= c #3A1D16",
"- c #3C241B",
"; c #490F0F",
": c #41100F",
"> c #431414",
", c #4B1414",
"< c #431917",
"1 c #451B19",
"2 c #4D1D1C",
"3 c #541616",
"4 c #531817",
"5 c #531E1D",
"6 c #591D1D",
"7 c #611F1F",
"8 c #44221B",
"9 c #4C221E",
"0 c #52211F",
"q c #5C211F",
"w c #61211F",
"e c #4E2521",
"r c #462A20",
"t c #542321",
"y c #5B2423",
"u c #552923",
"i c #5C2926",
"p c #5E2928",
"a c #5C312A",
"s c #642524",
"d c #6A2424",
"f c #642827",
"g c #6C2827",
"h c #652B29",
"j c #6A2B2A",
"k c #722727",
"l c #712827",
"z c #742D2C",
"x c #7A2D2D",
"c c #64312B",
"v c #6C312D",
"b c #73312E",
"n c #7B302F",
"m c #6E3131",
"M c #743331",
"N c #7B3332",
"B c #763833",
"V c #7D3834",
"C c #822F2F",
"Z c #80302E",
"A c #843534",
"S c #8C3535",
"D c #833936",
"F c #8B3837",
"G c #853A38",
"H c #8C3A39",
"J c #913636",
"K c #913837",
"L c #943B3B",
"P c #9A3D3D",
"I c #8A403D",
"U c #94403F",
"Y c #9A403F",
"T c #9C4141",
/* pixels */
"5jxSSPUKDMMjgu90yhzGnUPLYKAzjy2267kSKPLLTKSxzje1uf",
"tiMAHLPUHcGbpu9tsjzASLPPKSAz7t22tfjCKLTLTATj9ie<0j",
"0sgAJSKUbHGNj8t925MNCSPPLSAzy2<<06fnSJPPPNNh9t=11f",
"<6dGSLPPPAMh0****1jGJPLLPSAg5<**<qlNSJHKSNNp91**<5",
"*,7zSJLLKng0<&&@*<sxALPPKAkt,*@o*,snbLLLNNbu51$+%2",
"+:5dxCJJSxs4<X  X*5gxxJJSkj4>@  +>2szSGANjd11O  X,",
" +,6dxCCl56,+    +,6kxCCxd6,@    .>6lfzgx5$>O    +",
"  #367dds4,+      #,67wk76,*      #>4www4<>#      ",
"   >333333#   XX   *,33333>   ..   &,,,,,>*   XX  ",
"&   +,;;;o   *<1*   o;;,;o   *591   @###,@   &91< ",
"02    X     *t22y>     .    2teyy@    o.    et222*",
"4f*        ysy200f*        *sy9yph&        1ptt2tp",
"5fz*.     5jjpt0tfz*      4jyttt0fj+      *jpp526f",
"5gxxz+   lNN6p225fNNz   +gNhhtye2hjMj+  +<Azs655tj",
"pdNAHKLLLKANj9225fvhHKKLKHAMgfu97tVAGHLSAHNkjyttpj",
"5jMCKJPPPHGAjp29ffzNLNLPLHgzjttufjNASLUYTSHNjt2tps",
"5jkSSPPTPKAzj2t2yfBSzAYPJUCzmt2tyyMHALLPJSCzj6525j",
"psNALPPPPHHxs50tysnVHPLYJxAzjt0ttjAASTTLPSAxs5522j",
"ydNAUNPKTHAzfy22tejzPPPPPSAMfy22szmSHJTPTSANs522ys",
"ypzDAYPLPLnnf6516fAALJPPPADzsy0t5NjSLLLTLLAzptt2yj",
"5tzNKPUPPAHkf62tyqzxUTPPxPAjjy2tysxAJLPPJLHxmp5tpj",
"57zUUHHUPUCNfp22yjMzKTPTPUCxjyt26jmSLAPPTHxzst55pj",
"yfxHKKGKPNNztyy1p7zAKTTPPLAzg500ysxALTLLTHCzjt259s",
"57zGHHKPPKAxyy09tfnASPPPPUCNfpt0yskxSJTTLSAzj5t2yj",
"hsxCHPPPLZHbjh52ptzALPPPTSHks552y7zASTLLTLSmjp22ts",
"ydjAHLUPPHHzjpy0yhxAJPPTPLAzsp2t5jNCSPPLHANxjt555s",
"pmxAUSUPJSAzhy21ydxAJJPPPLHNfy2t6szAJLTPTHNjj225pj",
"t7xGJPJPPFnNjy29pymzHPPLPJA9p622tjkAJLPLTGGxjt2t5g",
"6mzASPPPLDAjjy10yseNjTUUULAks525tfzCSPSTLGANsy22yp",
"y7zxUPPUMHbzj0tehjemKNKPUHAxm522yjNCSJPLTHAzst52t7",
"6sxAJPPTKPFyy0tumpAGHPGSPSNzj552ppzMLJJTTLNkjy2ty7",
"yjzALTLLSLANheeubpMUHLNGPLAz2552yjxASGLLLGjNfpt25f",
"5jNxLTPLTSVMms2tfbvHbBIbD0abhittfhbGHLLLFnAzfi222s",
"tdxHLULLHHjxs-e9in9DbVVDYYxBg5ttyzhDFLLLLFxzzyetyp",
"tjxNHHULHAGmpc9t0ajGMMIIVDnNv500y7NNDGULLHGBfu0tyd",
"ymxxLLLUAHmxyyi99hvbcAVDUKvnyy09yhzNNLHLUDAxhftyym",
"tsNAGLTTHHAxyhit8v9cbcDDSNBnfq0tpsgDMHKHHbCVyy0yys",
"5szAHSPLUVAmsytpbbcAcDVIJINMw000yjNzLAIHLAAzy290ps",
"5szGJJLULKAxjtt1ciaabVHDnAF0vq95yjMVHPHPAFZfiy0ypd",
"yszGHTLLLHVMjtt8qccDvcVvFUMvf090yhzAHTLHGbAzy0t0tf",
"yjxAHKPSKHVms9t2yhbvI-VbmMNmpt225szAJDPLSAAfqyt9ys",
"psmNHPLPJGAjsyt2=icbrcBBxHzmst25yjzANKVGAADbiy22pj",
"6jjAHLPPKHxxjptt0ihhcIvIGNmNmp5t6jzAGLLDHGbbee055j",
"5jzAHPPPLKAxspy9yvhBBDvvGGVxd625yjNNKFDPLHNbMjt06j",
"yjmNHJULLLGgs25tyfxHzGHAGGHfzy22ysNCKKLPLHuLjht26j",
"pszALTPPPSAMj5ttyfzhMUSLNUCNm551psnASTPKTKHuby225s",
"psxGSTPPPHAzj69yyyNAhALNHSHxjyt5yszSHTLLTHAlt122ps",
"6sNALJPPJSAMstt2y0jASPPHPKANpy52t7kGLHPLPTCsj5t2pj",
"yjkGHPPPJPSgjt225gmCSPPPPHCzf652yfzHKUPTPAzzm6t2ys",
"6fkGUSPPTSCkstt5tsxCSLPPJHAzfy254jzSLATLJJAzd5t2pg"
};
